<?xml version="1.0" encoding="UTF-8"?>
<svg version="1.1" xmlns="http://www.w3.org/2000/svg" width="710" height="218">
<path d="M0 0 C0.8765625 0.69738281 1.753125 1.39476563 2.65625 2.11328125 C3.52765625 2.79132812 4.3990625 3.469375 5.296875 4.16796875 C22.8226562 18.61803338 34.22257958 43.34696638 37.375 65.53515625 C39.79733822 96.35268133 32.54209297 124.87459881 12.51171875 148.86328125 C8.18499523 153.86638339 3.66403225 158.7855682 -1.34375 163.11328125 C-2.00375 163.11328125 -2.66375 163.11328125 -3.34375 163.11328125 C-3.34375 163.77328125 -3.34375 164.43328125 -3.34375 165.11328125 C-44.82269122 199.66665418 -108.52510479 199.86500062 -159.63476562 195.39575195 C-162.88319686 195.06467065 -166.12470699 194.68969535 -169.36547852 194.29101562 C-171.64068483 194.048666 -171.64068483 194.048666 -175.125 194.20703125 C-178.57656675 194.10650018 -179.99789133 193.5665154 -182.78125 191.61328125 C-183.46058594 191.14921875 -184.13992188 190.68515625 -184.83984375 190.20703125 C-185.58427734 189.665625 -185.58427734 189.665625 -186.34375 189.11328125 C-186.26498593 186.43530287 -185.86570464 184.66558209 -184 182.69140625 C-182.14503148 181.12311469 -180.25659908 179.61045351 -178.34375 178.11328125 C-168.00084779 169.85884968 -161.64452883 160.4397021 -160.10009766 146.99169922 C-159.14619744 134.63909225 -161.08820184 122.75906115 -163.19900513 110.63531494 C-166.69968753 90.26003835 -168.99933221 66.28100534 -160.34375 47.11328125 C-160.07675293 46.49388672 -159.80975586 45.87449219 -159.53466797 45.23632812 C-147.7988508 18.03676957 -128.07645939 -3.92152221 -100.34375 -15.57421875 C-65.5840314 -28.05630557 -29.28274676 -22.64586047 0 0 Z M-112.34375 23.11328125 C-112.34375 23.77328125 -112.34375 24.43328125 -112.34375 25.11328125 C-113.00375 25.11328125 -113.66375 25.11328125 -114.34375 25.11328125 C-114.34375 25.77328125 -114.34375 26.43328125 -114.34375 27.11328125 C-114.941875 27.36078125 -115.54 27.60828125 -116.15625 27.86328125 C-118.66001919 29.2940065 -119.82447388 30.68243945 -121.34375 33.11328125 C-121.34375 33.77328125 -121.34375 34.43328125 -121.34375 35.11328125 C-122.33375 35.44328125 -123.32375 35.77328125 -124.34375 36.11328125 C-125.97693977 38.52667575 -127.46056905 40.90468348 -128.90625 43.42578125 C-129.30521484 44.10318359 -129.70417969 44.78058594 -130.11523438 45.47851562 C-142.2632484 66.22545778 -140.04456247 86.2626271 -136.34375 109.11328125 C-132.99027683 129.99934231 -132.57574889 148.28910953 -137.34375 169.11328125 C-92.20125071 169.69163198 -47.09297719 170.15006696 -12.53125 136.67578125 C0.49077589 123.16869423 10.46559878 105.12762042 11.65625 86.11328125 C11.73552734 84.95505859 11.73552734 84.95505859 11.81640625 83.7734375 C12.49573057 64.13210386 6.04361482 46.22100854 -6.34375 31.11328125 C-7.12105469 30.12714844 -7.89835938 29.14101563 -8.69921875 28.125 C-11.30891057 25.01283327 -14.29624209 22.49092911 -17.53125 20.05078125 C-18.10222412 19.61813965 -18.67319824 19.18549805 -19.26147461 18.73974609 C-45.58716229 -0.77357644 -88.28238814 -1.01173501 -112.34375 23.11328125 Z " fill="#FEA7EA" transform="translate(672.34375,21.88671875)"/>
<path d="M0 0 C4.59054724 3.93261865 7.98833234 7.21520445 10 13 C10.66 13 11.32 13 12 13 C12.37125 12.16082031 12.37125 12.16082031 12.75 11.3046875 C18.73522687 0.26942547 29.35267534 -6.31168052 41 -10 C55.43199385 -12.9273406 69.34679168 -11.55955183 81.79296875 -3.5234375 C94.65079262 5.35187455 101.60841492 17.09778775 104.57491684 32.27968979 C105.2319151 36.48413554 105.2628824 40.60848033 105.22705078 44.85595703 C105.22734283 45.7840065 105.22763489 46.71205597 105.22793579 47.66822815 C105.22655615 50.69818885 105.21106001 53.72789541 105.1953125 56.7578125 C105.19157751 58.87344224 105.18873283 60.98907372 105.18673706 63.10470581 C105.17913892 68.64486555 105.15952356 74.18491869 105.1373291 79.72503662 C105.11678803 85.38959308 105.10771774 91.05416694 105.09765625 96.71875 C105.07627378 107.81255412 105.04112311 118.90625147 105 130 C95.43 130 85.86 130 76 130 C75.97812622 126.07988037 75.97812622 126.07988037 75.95581055 122.08056641 C75.90533962 113.41919231 75.83872271 104.75799563 75.76428509 96.09679604 C75.71967076 90.84856342 75.68039507 85.60040683 75.65356445 80.35205078 C75.62744216 75.28147125 75.58697705 70.2111857 75.53681374 65.14078903 C75.52020521 63.21207732 75.50865366 61.28331482 75.50238609 59.35454178 C75.63667127 40.09623276 75.63667127 40.09623276 66 24 C58.85759072 18.30839261 53.10143658 16.20984313 44 17 C36.36987083 18.52602583 30.04144797 22.09534728 25.23828125 28.26171875 C17.86415444 39.63537196 18.66905132 52.27886747 18.5859375 65.3515625 C18.56720095 67.22057934 18.54762573 69.08958794 18.5272522 70.95858765 C18.47618759 75.84762692 18.43642538 80.73669354 18.39910889 85.62585449 C18.35890724 90.62693911 18.30788907 95.62791249 18.2578125 100.62890625 C18.16135757 110.4192 18.07785779 120.20954068 18 130 C8.43 130 -1.14 130 -11 130 C-11.01458252 127.29570801 -11.02916504 124.59141602 -11.04418945 121.80517578 C-11.09465144 112.84445095 -11.16126686 103.88389778 -11.23571491 94.92334175 C-11.28033673 89.49350612 -11.31961084 84.0637441 -11.34643555 78.63378906 C-11.37255026 73.38815057 -11.41301023 68.14279662 -11.46318626 62.89733505 C-11.47979985 60.90163604 -11.49134828 58.90588787 -11.49761391 56.91012955 C-11.50731515 54.10271005 -11.53544554 51.29600954 -11.56762695 48.48876953 C-11.56619186 47.67380508 -11.56475677 46.85884064 -11.5632782 46.0191803 C-11.70939455 36.93584856 -13.83275389 29.25016681 -20.1640625 22.625 C-25.3247572 18.05723618 -30.97935113 16.64657182 -37.73046875 16.796875 C-45.53324816 17.49523047 -51.29936351 20.1273319 -56.95703125 25.5546875 C-65.8361157 36.18242529 -68.0466147 49.37084315 -68.20532227 62.79296875 C-68.22017166 63.89199776 -68.22017166 63.89199776 -68.23532104 65.01322937 C-68.26659019 67.40462147 -68.29155467 69.79603336 -68.31640625 72.1875 C-68.33700576 73.85758951 -68.35800296 75.52767416 -68.37937927 77.19775391 C-68.43429071 81.57061804 -68.48383497 85.94352679 -68.53222656 90.31646729 C-68.58266897 94.78784098 -68.63823574 99.25915075 -68.69335938 103.73046875 C-68.80056205 112.48692633 -68.90161523 121.2434389 -69 130 C-78.57 130 -88.14 130 -98 130 C-98 84.79 -98 39.58 -98 -7 C-88.43 -7 -78.86 -7 -69 -7 C-68.67 -2.71 -68.34 1.58 -68 6 C-66.2675 4.1746875 -66.2675 4.1746875 -64.5 2.3125 C-46.3392991 -15.75245028 -19.85519567 -14.81641489 0 0 Z " fill="#545662" transform="translate(215,79)"/>
<path d="M0 0 C14.91186909 12.09452421 23.58053263 27.08257144 27.40576172 45.78369141 C27.40576172 53.04369141 27.40576172 60.30369141 27.40576172 67.78369141 C-8.23423828 67.78369141 -43.87423828 67.78369141 -80.59423828 67.78369141 C-76.92068927 82.47788745 -72.99893874 93.41432601 -59.99267578 101.49462891 C-49.37756556 107.19981844 -37.20118075 107.36826363 -25.71923828 104.15869141 C-15.08717611 100.42768554 -9.13917249 94.87280075 -3.15673828 85.54150391 C-2.64111328 84.96142578 -2.12548828 84.38134766 -1.59423828 83.78369141 C7.13484483 83.78369141 15.96519746 86.70019965 24.40576172 88.78369141 C19.17647415 105.42012254 7.89168215 117.90640555 -7.40673828 126.03369141 C-24.03883318 133.98909394 -45.01584355 135.58002502 -62.59423828 129.78369141 C-74.69099337 125.02375098 -86.2667815 117.93194259 -94.59423828 107.78369141 C-94.59423828 107.12369141 -94.59423828 106.46369141 -94.59423828 105.78369141 C-95.25423828 105.78369141 -95.91423828 105.78369141 -96.59423828 105.78369141 C-108.74019407 86.12021444 -112.96663029 64.98772406 -108.40673828 42.03369141 C-103.2069851 22.08115014 -92.05811146 6.36929715 -74.33251953 -4.23583984 C-51.80363174 -16.7877341 -20.69383125 -15.78815732 0 0 Z M-72.59423828 28.78369141 C-76.81394929 34.26931571 -79.59423828 39.75042599 -79.59423828 46.78369141 C-54.18423828 46.78369141 -28.77423828 46.78369141 -2.59423828 46.78369141 C-3.82058958 36.97288105 -7.10937501 29.15625434 -14.47314453 22.35009766 C-33.34996387 8.40975778 -56.89598214 11.99958751 -72.59423828 28.78369141 Z " fill="#545662" transform="translate(447.59423828125,80.21630859375)"/>
<path d="M0 0 C0.89283691 0.01844971 1.78567383 0.03689941 2.70556641 0.0559082 C26.16819304 0.81811811 46.52628123 10.05114801 64.6875 24.5 C65.55890625 25.17804687 66.4303125 25.85609375 67.328125 26.5546875 C84.8539062 41.00475213 96.25382958 65.73368513 99.40625 87.921875 C101.82858822 118.73940008 94.57334297 147.26131756 74.54296875 171.25 C70.21624523 176.25310214 65.69528225 181.17228695 60.6875 185.5 C60.0275 185.5 59.3675 185.5 58.6875 185.5 C58.6875 186.16 58.6875 186.82 58.6875 187.5 C56.5930032 189.13429751 54.50967909 190.64167234 52.3125 192.125 C51.70921875 192.54523438 51.1059375 192.96546875 50.484375 193.3984375 C45.95287135 196.5 45.95287135 196.5 43.6875 196.5 C42.68152985 192.73073331 41.68375198 188.95934588 40.6875 185.1875 C40.40132812 184.11564453 40.11515625 183.04378906 39.8203125 181.93945312 C39.54960938 180.91142578 39.27890625 179.88339844 39 178.82421875 C38.74863281 177.87635498 38.49726562 176.92849121 38.23828125 175.9519043 C37.6875 173.5 37.6875 173.5 37.6875 170.5 C37.0275 170.17 36.3675 169.84 35.6875 169.5 C36.23277344 169.09910156 36.77804687 168.69820312 37.33984375 168.28515625 C55.58040965 154.5345758 68.87132396 135.36609626 72.375 112.5 C72.50091232 111.1685442 72.60391784 109.83478182 72.6875 108.5 C72.74035156 107.72785156 72.79320312 106.95570312 72.84765625 106.16015625 C73.52928031 86.45233003 67.03117044 68.69416754 54.6875 53.5 C54.07519531 52.67886719 53.46289062 51.85773437 52.83203125 51.01171875 C50.35059621 48.10541141 47.59303953 45.79730853 44.5625 43.5 C43.98701416 43.06284668 43.41152832 42.62569336 42.81860352 42.17529297 C32.39926254 34.43124678 19.06426349 28.38570458 5.88671875 28.3671875 C4.99146484 28.36589844 4.09621094 28.36460938 3.17382812 28.36328125 C2.25021484 28.36714844 1.32660156 28.37101562 0.375 28.375 C-0.53701172 28.37113281 -1.44902344 28.36726563 -2.38867188 28.36328125 C-7.78883922 28.37102343 -12.96983698 28.71081414 -18.3125 29.5 C-17.88776888 20.28333478 -16.16250493 10.79184333 -11.7578125 2.61328125 C-8.0589469 -0.58334222 -4.73483195 -0.16862694 0 0 Z " fill="#FCB002" transform="translate(610.3125,-0.5)"/>
<path d="M0 0 C9.57 0 19.14 0 29 0 C29 58.74 29 117.48 29 178 C19.43 178 9.86 178 0 178 C0 119.26 0 60.52 0 0 Z " fill="#535661" transform="translate(0,31)"/>
<path d="M0 0 C9.57 0 19.14 0 29 0 C29 45.21 29 90.42 29 137 C19.43 137 9.86 137 0 137 C0 91.79 0 46.58 0 0 Z " fill="#535561" transform="translate(58,72)"/>
<path d="M0 0 C-0.62132812 0.76183594 -1.24265625 1.52367187 -1.8828125 2.30859375 C-4.37657027 6.03174569 -4.77222595 9.73082028 -5.41601562 14.09716797 C-7.37632207 26.76199885 -7.37632207 26.76199885 -11.9765625 30.26953125 C-15.5 31.375 -15.5 31.375 -19.21484375 32.1484375 C-23.47482784 33.10682401 -26.42955855 34.6704079 -30.0625 37 C-31.59583984 37.9590625 -31.59583984 37.9590625 -33.16015625 38.9375 C-36.11074613 40.96670171 -36.11074613 40.96670171 -38.74609375 43.75 C-41 46 -41 46 -43 46 C-43 46.66 -43 47.32 -43 48 C-43.78375 48.61875 -44.5675 49.2375 -45.375 49.875 C-47.97332562 51.97840645 -48.63471818 53.08739879 -50 56 C-50.90685547 56.86625 -50.90685547 56.86625 -51.83203125 57.75 C-54.29653994 60.30776037 -55.87361061 62.91385129 -57.625 66 C-58.21539063 67.03125 -58.80578125 68.0625 -59.4140625 69.125 C-67.26024334 83.34861848 -67.56684554 97.09126193 -67 113 C-87.89324619 106.10675381 -87.89324619 106.10675381 -94 100 C-94.97334424 88.50134011 -93.71820223 78.44842465 -89 68 C-88.73300293 67.38060547 -88.46600586 66.76121094 -88.19091797 66.12304688 C-76.4551008 38.92348832 -56.73270939 16.96519654 -29 5.3125 C-6.13835207 -3.06917604 -6.13835207 -3.06917604 0 0 Z " fill="#6FCCB6" transform="translate(601,1)"/>
<path d="M0 0 C9.67538768 -0.81956225 18.97540183 1.49722376 27.88671875 5.19921875 C30 7 30 7 30.796875 10 C30.89596014 11.33136934 30.95974711 12.66555558 31 14 C31.03673828 14.81855469 31.07347656 15.63710937 31.11132812 16.48046875 C32.17351829 47.80377877 22.73551169 75.46805879 1.47119141 98.66796875 C-1.56871245 101.90284906 -4.63925899 105.09565592 -8 108 C-8.66 108 -9.32 108 -10 108 C-10 108.66 -10 109.32 -10 110 C-12.0944968 111.63429751 -14.17782091 113.14167234 -16.375 114.625 C-16.97828125 115.04523438 -17.5815625 115.46546875 -18.203125 115.8984375 C-22.73462865 119 -22.73462865 119 -25 119 C-26.00597015 115.23073331 -27.00374802 111.45934588 -28 107.6875 C-28.42925781 106.0797168 -28.42925781 106.0797168 -28.8671875 104.43945312 C-29.27324219 102.89741211 -29.27324219 102.89741211 -29.6875 101.32421875 C-30.06455078 99.9024231 -30.06455078 99.9024231 -30.44921875 98.4519043 C-31 96 -31 96 -31 93 C-31.66 92.67 -32.32 92.34 -33 92 C-32.45472656 91.59910156 -31.90945313 91.19820313 -31.34765625 90.78515625 C-13.10709035 77.0345758 0.18382396 57.86609626 3.6875 35 C3.81341232 33.6685442 3.91641784 32.33478182 4 31 C4.05285156 30.22785156 4.10570312 29.45570312 4.16015625 28.66015625 C4.48647978 19.22514991 2.9884896 8.9654688 0 0 Z " fill="#BEDF34" transform="translate(679,77)"/>
<path d="M0 0 C1.03862034 3.7244451 2.05272543 7.45514035 3.0625 11.1875 C3.35705078 12.24259766 3.65160156 13.29769531 3.95507812 14.38476562 C4.22900391 15.40634766 4.50292969 16.42792969 4.78515625 17.48046875 C5.17006226 18.88655396 5.17006226 18.88655396 5.56274414 20.32104492 C6.04687042 23.28716308 5.99569689 25.16389123 5 28 C3.39624023 29.31445312 3.39624023 29.31445312 1.30859375 30.28125 C0.53733154 30.64581299 -0.23393066 31.01037598 -1.02856445 31.38598633 C-2.28286255 31.9374231 -2.28286255 31.9374231 -3.5625 32.5 C-4.42512451 32.89018311 -5.28774902 33.28036621 -6.17651367 33.68237305 C-31.89960494 45.0624903 -60.07824566 48 -88 48 C-86.30063835 43.15153879 -83.69929659 38.94194137 -81.0625 34.5625 C-80.17646984 33.08578307 -79.29231662 31.60793817 -78.41015625 30.12890625 C-77.97848145 29.42709229 -77.54680664 28.72527832 -77.10205078 28.00219727 C-75.81898067 25.84276006 -75.81898067 25.84276006 -74.99609375 22.5625 C-72.44848212 19.29198488 -71.28847647 19.44298164 -67.25 18.93359375 C-64.83495645 18.74600939 -62.41800185 18.58203476 -60 18.4375 C-40.60046395 16.80038228 -22.06521976 12.91162676 -5.70703125 1.75390625 C-3 0 -3 0 0 0 Z " fill="#A6EEFD" transform="translate(648,170)"/>
<path d="M0 0 C4.75814358 2.66873921 8.00029965 6.12589896 9.75 11.375 C10.2579081 17.59687421 10.50354356 23.12003901 6.75 28.375 C2.1492446 32.98832577 -1.58546532 34.52723344 -8.0625 34.625 C-14.75980056 34.54430963 -18.25204669 33.41836134 -23 28.5625 C-26.75090391 23.24871945 -27.78889979 19.0526145 -26.84375 12.68359375 C-25.60850454 7.88076438 -23.40637934 4.04278794 -19.45703125 0.98828125 C-13.12729033 -2.61246957 -6.65013339 -2.97505968 0 0 Z " fill="#545662" transform="translate(81.25,14.625)"/>
<path d="" fill="#C9C596" transform="translate(0,0)"/>
</svg>
