<?xml version="1.0" encoding="UTF-8"?>
<!-- Created with Inkscape (http://www.inkscape.org/) -->
<svg width="200mm" height="200mm" version="1.1" viewBox="0 0 200 200" xmlns="http://www.w3.org/2000/svg">
 <g transform="matrix(.99996 0 0 .99996 -82.86 -137.6)">
  <g transform="matrix(14.922,0,0,14.922,-1152.9,-1915.4)">
   <path d="m89.516 138.77c-3.0487 0-5.5202 2.4715-5.5202 5.5202v5.5198h5.5202c3.0487 0 5.5198-2.4711 5.5198-5.5198s-2.4711-5.5202-5.5198-5.5202z" fill="#fff"/>
   <path transform="matrix(.35278 0 0 -.35278 90.292 140.32)" d="m-2.1969 7.7607c-10.492 0-18.998-8.5056-18.998-18.998v-18.996h18.998c10.492 0 18.996 8.5041 18.996 18.996 0 10.492-8.5041 18.998-18.996 18.998zm1.1133-5.0991c0.768 0.049-0.83764-0.38298-1.0356-0.60498-0.374-0.42 0.82379 0.48452 2.6338 0.22852 0.033-4e-3 0.09668-0.014648 0.09668-0.014648 0.081-0.013 0.31803-0.067637 0.35303-0.077637 0.016-4e-3 0.13764-0.040664 0.18164-0.055664 1.789-0.6 3.3655-2.6571 3.1055-5.2881-0.162 0.713-0.40102 1.1414-0.79102 1.6934-0.575 0.817-0.74707 0.70764-0.26807-0.19336 0.448-0.842 0.94104-2.5351 0.39404-3.8701-0.19-0.41-0.42055-0.81171-0.68555-1.1997 0.159 0.837 0.097433 1.3108-0.080566 1.9878-0.229 0.871-0.41004 0.83529-0.29004-0.074707 0.114-0.853-0.00588-2.4402-0.90088-3.3882-0.284-0.266-0.58999-0.51886-0.91699-0.75586 0.361 0.63 0.45284 1.0529 0.50684 1.6699 0.074 0.824-0.093926 0.84744-0.27393 0.023438-0.161-0.74-0.71476-1.9927-1.6978-2.5767-0.478-0.236-0.9883-0.44277-1.5293-0.61377 0 0 0.055193-1.1813 0.59619-2.1343 0.324-0.57 0.80549-1.0148 1.1045-1.2568 0.086-0.068 0.176-0.13461 0.271-0.20361 0 0 0.75446-0.14707 1.3975-0.26807 0.643-0.121 1.7774-0.65313 2.3394-1.5571 0 0-0.00232-1e-3 -0.00732 0 0.281-0.155 0.59529-0.26801 0.94629-0.31201 0.965-0.124 1.899 0.40119 2.02 1.3462 0.04 0.306 0.00957 0.58241-0.086426 0.79541-0.195 0.431-0.51716 0.82953-0.88916 1.2905-0.368 0.457-0.78374 0.97449-1.1777 1.6465-0.355 0.606-0.49723 1.2905-0.40723 1.9805 0.222 1.746 1.867 2.979 3.665 2.748 1.093-0.139 1.9939-0.78846 2.4829-1.6685 0.99-1.563 0.41602-3.5786 0.41602-3.5786-0.119 1.396-0.60385 1.6359-0.54785 1.3169 0.055-0.321 0.19124-0.94121 0.073242-1.8662-0.119-0.924-1.3726-2.2559-1.3726-2.2559s-0.72649 1.1036-0.62549 2.0786c0.1 0.975 1.1908 1.9443 0.56982 1.6143-0.527-0.28-0.88037-1.2129-0.88037-1.2129s-0.26995 0.32403-0.14795 1.103c0.125 0.779 1.3288 1.7391 1.4678 1.8911 0.121 0.131 0.15443 0.3937 0.086426 0.6167-0.257 0.603-0.76488 1.044-1.5469 1.144-1.34 0.171-2.5631-0.72884-2.7261-2.0068-0.063-0.501 0.039294-0.99894 0.30029-1.4399 0.369-0.624 0.77193-1.123 1.1279-1.563 0.401-0.494 0.77886-0.96093 1.0269-1.5029 0.17-0.373 0.2246-0.80753 0.1626-1.2905-0.186-1.45-1.541-2.4766-3.022-2.2866-0.237 0.03-0.47266 0.06879-0.70166 0.11279 0.116-0.422 0.28789-0.85035 0.83789-1.2773 0.6-0.464 1.2393-0.3127 1.8003-0.6167 0.562-0.305 0.65039-0.52881 0.65039-0.52881s-0.73765 0.15141-0.76465-0.05859c-0.026-0.209 0.47397-0.23506 0.77197-0.33105 0.298-0.096 0.44824-0.4248 0.44824-0.4248s-0.45818 0.19467-0.38818-0.0073c6e-3 -0.016 0.23592-0.35672 0.44092-0.65772 0.204-0.3 0.36638-0.6063 0.067383-1.0503-1.123-1.001-2.4019-1.8302-3.7939-2.4492-0.138 0.402-0.33208 0.90799-0.20508 1.667 0.101 0.6 0.42691 0.82382 0.87891 0.84082 0.452 0.015 0.85186-0.0779 1.1309 0.24609 0.072 0.085 0.092426 0.19648 0.086426 0.31348-0.256 0.272-0.64759 0.66165-0.97559 0.86865-0.538 0.34-0.73312 0.63591-1.7241 0.60791-0.992-0.028-3.0258-0.48372-4.0898 0.73828-0.293 0.337-0.48152 0.70101-0.60352 1.062-0.127-0.092-0.26451-0.17509-0.39551-0.24609l0.00146-0.0029c-0.105-0.058-0.59473-0.27246-0.59473-0.27246-0.653-0.252-1.4118-0.43475-1.9028-0.57275-0.654-0.185-0.91648-0.37872-1.0635-0.76172-0.165-0.427 0.14355-1.0781 0.14355-1.0781s-0.13674-0.34474-0.53174-0.80273c-0.338-0.395-1.1045-0.78369-1.1045-0.78369s0.58874 1.2518-0.010254 0.55078c-0.599-0.701-1.1528-0.84229-1.1528-0.84229 0.299 0.349 0.36328 0.8492-0.011719 0.4292-0.376-0.422-1.2056-0.62402-1.2056-0.62402 0.369 0.261 0.69648 0.7285 0.31348 0.5625-0.339-0.147-0.89291-0.25088-1.2539-0.25488-0.126-0.016-0.26945 0.0032-0.43945 0.07324-1.206 0.917-2.2623 2.0168-3.1333 3.2578 0.385 0.213 1.0387 0.50141 1.8047 0.52441 0.609 0.016 0.65333-0.18833 0.86133-0.59033 0.227-0.44 0.30469-1.5 0.30469-1.5s0.55237-0.33708 1.6304-0.20508c0.761 0.181 1.1748 0.47652 1.2158 0.60352 0.044 0.141-0.58312 1.9289 0.15088 3.0249 0.213 0.318 0.45101 0.54431 0.68701 0.71631l-0.00146 0.0015s0.4857 0.34574 0.9917 0.53174c-1.904 0.708-2.3182 1.9072-2.4492 2.2002-0.211 0.478-0.12598-0.99023-0.12598-0.99023s-0.47082 0.60318-0.46582 1.6802c0 0 0.013102 0.46217 0.079101 0.82617-1.26 0.069-1.7798 0.2666-1.7798 0.2666s1.3966 0.55827-0.04541 0.32227c-1.38-0.226-2.1138 0.21387-2.1138 0.21387 0.237 0.056 1.0801 0.58 0.20508 0.375-1.315-0.307-1.9658 0.36768-1.9658 0.36768 0.365-0.061 1.118 0.08743 0.62695 0.29443-0.298 0.125-0.71456 0.38575-0.99756 0.57275-0.068 0.039-1.0437 0.71018-1.0737 1.4092 0.204 1.292 0.5801 2.5252 1.1001 3.6812 0.371-0.21 0.86295-0.50537 1.2729-1.1514 0.327-0.516 0.16633-0.93844-0.15967-1.2524-0.326-0.313-0.6699-0.53593-0.6709-0.85693 0-0.19 0.16792-0.34157 0.33691-0.45557 0.087-0.058 0.1733-0.10555 0.2373-0.14355 1.408-0.594 3.2427-0.97558 4.4297-1.1426 0.149 0.69 0.50299 1.3104 0.91699 1.8384-6e-3 7e-3 -0.014508 0.013973-0.020508 0.021973-0.858 0.809-1.2598 2.0259-1.2598 2.0259s1.3495-0.66644 0.20947 0.24756c-1.091 0.876-1.2568 1.7153-1.2568 1.7153 0.201-0.139 1.1545-0.41485 0.41748 0.098145-1.108 0.772-1.0415 1.708-1.0415 1.708 0.199-0.312 0.81121-0.77353 0.63721-0.26953-0.093 0.267-0.18688 0.73328-0.25488 1.1133-0.017 0.069-0.0338 0.14545-0.0498 0.23145-0.08 0.443-0.18315 0.95059 0.17285 1.4546 0.965 0.813 2.0345 1.5024 3.1875 2.0464 0.148-0.401 0.36588-0.94015 0.25488-1.7021-0.088-0.603-0.47625-0.79824-0.92725-0.82324-0.451-0.026-0.80027 0.063398-1.0723-0.2666-0.191-0.233 0.01013-0.65879 0.05713-0.86279v-0.00732c0.567-1.639 1.7057-3.5092 2.3687-4.4312 0.569 0.399 1.1702 0.59925 1.7432 0.65625 0.388 0.037 1.0611 0.12753 0.47607 0.26953-0.641 0.156-1.4567-0.034495-0.69873 0.2915 0.924 0.396 2.1536-0.08314 2.5356 0.00586 0.386 0.089 0.464 0.79479 0.479 1.1338-0.027 1e-3 -0.054961 0.00193-0.084961 0.00293-0.444-0.038-1.6209-0.15284-2.0449-0.33984 0 0-0.27272 0.53327-0.28271 1.0723 0 0 0.070852-0.087625 0.17285-0.14062 0.148-0.046 0.406-0.037703 0.75 0.029297 0.368 0.073 0.55288 0.25038 0.62988 0.44238 0.101 0.252-0.095926 0.61243-0.27393 0.66943-0.218 0.07-0.53466 0.021672-0.80566-0.11133-0.056-0.035-0.1096-0.069539-0.1626-0.10254-0.431-0.273-0.33984-0.57715-0.33984-0.57715s-0.40913 0.24922-0.70313 1.2202c0 0-0.54067 0.38928-0.53467 0.63428 0 0 0.54035 0.57104 1.4854 1.04 0 0 0.6806 0.896 1.7666 1.125 0 0 0.61193 1.3492 2.5239 1.4722zm0.75586-1.793c-0.32003-0.002871-0.61193-0.1593-0.78955-0.4043 0.088 0.049 0.19605 0.093301 0.33105 0.1333 0.305 0.089 0.65562-0.17366 0.78662-0.59766s-0.011477-0.8355-0.31348-0.9375c-0.114-0.039-0.21422-0.060777-0.30322-0.071777 0.057-0.019 0.12011-0.033016 0.18311-0.041016 0.542-0.069 1.0346 0.30257 1.1016 0.83057 0.068 0.527-0.31593 1.0106-0.85693 1.0796-0.046625 6e-3 -0.093442 0.009199-0.13916 0.008789zm-3.542-0.66211c-0.0078-1.0508e-4 -0.015563-0.001027-0.023437-0.001465-0.334-0.017-0.71613-0.24145-1.1821-0.71045l0.00146-0.001465c0.046659 0.013839 0.64828 0.344 0.80859 0.17432 0.15-0.159 0.306-0.19711 0.479-0.18311 0.252 0.019 0.389 0.14582 0.375 0.36182-0.013562 0.20828-0.21665 0.36361-0.4585 0.36035zm-2.7861-2.7671c0.46041 0.00113 0.76904-0.36621 0.76904-0.36621l-0.00293-0.00732c-0.47 0.181-0.73383-0.037275-1.4238-0.53027-0.702-0.502-1.3125 0.26074-1.3125 0.26074l0.00293 0.00732c0.471-0.182 0.73692 0.044864 1.4619 0.48486 0.181 0.1095 0.3519 0.1505 0.50537 0.15088z" fill="#11c1b0"/>
  </g>
 </g>
</svg>
